<svg width="42" height="33" viewBox="0 0 42 33" fill="none" xmlns="http://www.w3.org/2000/svg">
<path d="M35.2161 3.27469C32.5646 2.04692 29.7214 1.14233 26.7486 0.624239C26.6945 0.614255 26.6403 0.639232 26.6125 0.689221C26.2468 1.34558 25.8417 2.20185 25.5581 2.87488C22.3607 2.39177 19.1797 2.39177 16.0477 2.87488C15.7641 2.18685 15.3443 1.34558 14.977 0.689221C14.9491 0.640896 14.895 0.615919 14.8409 0.624239C11.8697 1.14067 9.02643 2.04526 6.37336 3.27469C6.35039 3.28469 6.33072 3.30135 6.31759 3.323C0.924542 11.4543 -0.552846 19.3856 0.171912 27.2187C0.175192 27.257 0.196508 27.2937 0.226023 27.3169C3.78423 29.954 7.23092 31.5551 10.6137 32.6162C10.6678 32.6329 10.7252 32.613 10.7596 32.5679C11.5598 31.4651 12.2731 30.3022 12.8847 29.0796C12.9208 29.0078 12.8863 28.9229 12.8125 28.8946C11.6811 28.4615 10.6038 27.9333 9.56754 27.3336C9.48555 27.2854 9.47898 27.167 9.55442 27.1103C9.7725 26.9455 9.99058 26.7739 10.1988 26.6007C10.2365 26.569 10.289 26.5622 10.3333 26.5823C17.1414 29.7192 24.5119 29.7192 31.2398 26.5823C31.284 26.5607 31.3365 26.5673 31.3759 26.599C31.5841 26.7721 31.8021 26.9455 32.0219 27.1103C32.0973 27.167 32.0925 27.2854 32.0105 27.3336C30.9741 27.9451 29.8968 28.4615 28.7638 28.8929C28.6899 28.9213 28.6572 29.0078 28.6932 29.0796C29.3181 30.3007 30.0314 31.4634 30.8167 32.5662C30.8495 32.613 30.9086 32.6329 30.9627 32.6162C34.3617 31.5551 37.8085 29.954 41.3666 27.3169C41.3978 27.2937 41.4176 27.2587 41.4209 27.2204C42.2883 18.1646 39.968 10.2981 35.2702 3.32466C35.2587 3.30135 35.2391 3.28469 35.2161 3.27469ZM13.9013 22.4492C11.8517 22.4492 10.1627 20.55 10.1627 18.2178C10.1627 15.8856 11.8189 13.9864 13.9013 13.9864C16.0002 13.9864 17.6727 15.9023 17.6399 18.2178C17.6399 20.55 15.9838 22.4492 13.9013 22.4492ZM27.7243 22.4492C25.6746 22.4492 23.9857 20.55 23.9857 18.2178C23.9857 15.8856 25.6417 13.9864 27.7243 13.9864C29.823 13.9864 31.4955 15.9023 31.4627 18.2178C31.4627 20.55 29.823 22.4492 27.7243 22.4492Z" fill="white"/>
</svg>
