<svg width="40" height="33" viewBox="0 0 40 33" fill="none" xmlns="http://www.w3.org/2000/svg">
<path d="M35.95 8.59705C35.9751 8.94703 35.9749 9.2971 35.9749 9.64708C35.9749 20.322 27.8501 32.6221 13 32.6221C8.42497 32.6221 4.17499 31.297 0.599976 28.9972C1.25 29.0721 1.87493 29.0971 2.54998 29.0971C6.32492 29.0971 9.79997 27.8222 12.575 25.6472C9.02497 25.5721 6.04996 23.2471 5.02494 20.0471C5.52499 20.1221 6.02495 20.1721 6.55 20.1721C7.27497 20.1721 8.00003 20.072 8.67499 19.8971C4.975 19.1471 2.19991 15.8971 2.19991 11.9721V11.8721C3.27487 12.4721 4.52497 12.8471 5.84988 12.897C3.67487 11.447 2.24993 8.97203 2.24993 6.17202C2.24993 4.67205 2.64985 3.29704 3.34991 2.09703C7.32493 6.99704 13.2999 10.197 19.9999 10.547C19.8749 9.94703 19.7999 9.3221 19.7999 8.69708C19.7999 4.24704 23.4 0.62207 27.8749 0.62207C30.1999 0.62207 32.2999 1.59707 33.775 3.17207C35.5999 2.82209 37.3499 2.14706 38.8999 1.22208C38.2998 3.09712 37.0248 4.67212 35.35 5.67206C36.975 5.49713 38.55 5.04704 39.9999 4.42209C38.9 6.02204 37.525 7.44697 35.95 8.59705Z" fill="#F9F9F9"/>
</svg>
