<svg width="46" height="33" viewBox="0 0 46 33" fill="none" xmlns="http://www.w3.org/2000/svg">
<path d="M44.56 5.62899C44.0365 3.65815 42.4944 2.10598 40.5363 1.57924C36.9872 0.62207 22.7554 0.62207 22.7554 0.62207C22.7554 0.62207 8.52378 0.62207 4.97454 1.57924C3.01646 2.10607 1.47429 3.65815 0.950877 5.62899C-0.00012207 9.20122 -0.00012207 16.6544 -0.00012207 16.6544C-0.00012207 16.6544 -0.00012207 24.1075 0.950877 27.6798C1.47429 29.6507 3.01646 31.1381 4.97454 31.6649C8.52378 32.6221 22.7554 32.6221 22.7554 32.6221C22.7554 32.6221 36.9871 32.6221 40.5363 31.6649C42.4944 31.1381 44.0365 29.6507 44.56 27.6798C45.511 24.1075 45.511 16.6544 45.511 16.6544C45.511 16.6544 45.511 9.20122 44.56 5.62899ZM18.1009 23.4213V9.88747L29.9958 16.6545L18.1009 23.4213Z" fill="white"/>
</svg>
