<svg width="70" height="70" viewBox="0 0 70 70" fill="none" xmlns="http://www.w3.org/2000/svg">
<path d="M32.0696 3.83133C33.6542 2.10834 36.3732 2.10834 37.9579 3.83133L41.0984 7.24604C42.1007 8.33585 43.623 8.78284 45.0554 8.40792L49.5435 7.23318C51.8081 6.64043 54.0955 8.11044 54.4971 10.4166L55.2929 14.9872C55.5469 16.4459 56.5859 17.6449 57.9936 18.1039L62.4044 19.5421C64.6299 20.2678 65.7595 22.7411 64.8505 24.8983L63.049 29.1736C62.474 30.538 62.6998 32.1085 63.6359 33.2557L66.5689 36.8502C68.0488 38.6639 67.6619 41.3552 65.7309 42.6786L61.904 45.3011C60.6826 46.1381 60.0235 47.5814 60.1908 49.0525L60.7149 53.6621C60.9793 55.988 59.1987 58.0429 56.8588 58.1122L52.2216 58.2495C50.7416 58.2933 49.4068 59.1511 48.7522 60.4791L46.7009 64.6403C45.6659 66.74 43.057 67.506 41.0511 66.2992L37.0758 63.9076C35.807 63.1444 34.2204 63.1444 32.9517 63.9076L28.9764 66.2992C26.9705 67.506 24.3616 66.74 23.3266 64.6403L21.2753 60.4791C20.6206 59.1511 19.2859 58.2933 17.8059 58.2495L13.1686 58.1122C10.8288 58.0429 9.04818 55.988 9.31261 53.6621L9.83668 49.0525C10.0039 47.5814 9.34484 46.1381 8.12347 45.3011L4.29659 42.6786C2.36561 41.3552 1.97865 38.6639 3.45859 36.8502L6.39159 33.2557C7.32767 32.1085 7.55347 30.538 6.97851 29.1736L5.177 24.8983C4.268 22.7411 5.39752 20.2678 7.6231 19.5421L12.0338 18.1039C13.4415 17.6449 14.4805 16.4459 14.7345 14.9872L15.5304 10.4166C15.9319 8.11045 18.2193 6.64043 20.4839 7.23318L24.972 8.40792C26.4044 8.78284 27.9268 8.33585 28.9291 7.24604L32.0696 3.83133Z" fill="#2C07FF"/>
<path d="M33.2448 23.9945C33.9952 22.5722 36.0322 22.5722 36.7826 23.9945L39.0313 28.2566C39.3207 28.8051 39.8481 29.1883 40.4592 29.294L45.2075 30.1156C46.7921 30.3898 47.4216 32.3271 46.3008 33.4803L42.9422 36.9359C42.51 37.3807 42.3085 38.0007 42.3968 38.6146L43.0827 43.3844C43.3116 44.9761 41.6637 46.1734 40.2206 45.4639L35.8962 43.3375C35.3397 43.0639 34.6877 43.0639 34.1312 43.3375L29.8068 45.4639C28.3637 46.1734 26.7157 44.9761 26.9446 43.3844L27.6306 38.6146C27.7189 38.0007 27.5174 37.3807 27.0852 36.9359L23.7266 33.4803C22.6058 32.3271 23.2353 30.3898 24.8198 30.1156L29.5682 29.294C30.1792 29.1883 30.7067 28.8051 30.9961 28.2566L33.2448 23.9945Z" fill="white"/>
</svg>
