<svg width="128" height="127" viewBox="0 0 128 127" fill="none" xmlns="http://www.w3.org/2000/svg">
<path d="M72.7311 0.665826C33.6027 -4.81691 0.0930176 25.4397 0.0930176 63.5H10.6727C10.6727 32.5875 37.1807 7.87258 68.7064 10.8454C93.8295 13.2132 113.856 33.2394 116.223 58.3625C119.188 89.8882 94.4732 116.39 63.5608 116.39V126.97C101.627 126.97 131.868 93.4642 126.395 54.3316C122.506 26.5342 100.527 4.55451 72.7311 0.665826Z" fill="black"/>
<path d="M74.0571 22.4445C46.1459 15.7312 21.2441 36.7118 21.2441 63.5H31.8238C31.8238 43.6566 50.0346 28.0653 70.6558 32.5307C81.3857 34.8538 92.207 45.675 94.53 56.407C98.9974 77.0261 83.4041 95.2369 63.5607 95.2369V105.817C90.3246 105.817 111.281 80.9717 104.634 53.0747C102.852 45.6488 99.0538 38.8592 93.6584 33.4545C88.263 28.0497 81.4799 24.2397 74.0571 22.4445Z" fill="black"/>
<path d="M63.5608 42.3407C57.9494 42.3412 52.568 44.5707 48.6003 48.5388C44.6326 52.5069 42.4036 57.8885 42.4036 63.5H52.9812C52.9812 61.4075 53.6017 59.362 54.7642 57.6222C55.9267 55.8824 57.579 54.5264 59.5122 53.7257C61.4454 52.9249 63.5726 52.7154 65.6248 53.1236C67.6771 53.5318 69.5622 54.5394 71.0418 56.019C72.5214 57.4986 73.529 59.3837 73.9372 61.436C74.3454 63.4882 74.1359 65.6154 73.3352 67.5486C72.5344 69.4818 71.1784 71.1341 69.4386 72.2966C67.6988 73.4591 65.6533 74.0796 63.5608 74.0796V84.6572C66.3568 84.6846 69.1305 84.1576 71.7216 83.1066C74.3127 82.0555 76.6697 80.5014 78.6565 78.534C80.6433 76.5665 82.2205 74.2248 83.2969 71.6441C84.3732 69.0635 84.9274 66.2951 84.9274 63.499C84.9274 60.7028 84.3732 57.9344 83.2969 55.3538C82.2205 52.7731 80.6433 50.4314 78.6565 48.464C76.6697 46.4965 74.3127 44.9424 71.7216 43.8914C69.1305 42.8403 66.3568 42.3133 63.5608 42.3407Z" fill="black"/>
<path d="M52.9994 73.7243V126.976H42.4015V84.3202H0.0849609V73.7243H52.9994Z" fill="black"/>
<path d="M31.8077 95.2572V126.976H21.2118V105.851H0.0849609V95.2572H31.8077Z" fill="black"/>
</svg>
