<svg width="25" height="25" viewBox="0 0 25 25" fill="none" xmlns="http://www.w3.org/2000/svg">
<path fill-rule="evenodd" clip-rule="evenodd" d="M7.99256 9.44337C6.67344 10.3924 5.59751 11.5552 4.91728 12.3811C4.70498 12.6388 4.70498 12.9832 4.91728 13.241C5.59751 14.0669 6.67344 15.2297 7.99256 16.1787C9.31958 17.1334 10.8076 17.811 12.3334 17.811C13.8592 17.811 15.3473 17.1334 16.6743 16.1787C17.9934 15.2297 19.0694 14.0669 19.7496 13.241C19.9619 12.9832 19.9619 12.6388 19.7496 12.3811C19.0694 11.5552 17.9934 10.3924 16.6743 9.44337C15.3473 8.48863 13.8592 7.81104 12.3334 7.81104C10.8076 7.81104 9.31958 8.48863 7.99256 9.44337ZM6.82453 7.81988C8.32757 6.73851 10.2235 5.81104 12.3334 5.81104C14.4434 5.81104 16.3393 6.73851 17.8423 7.81988C19.3533 8.90694 20.5535 10.2113 21.2933 11.1096C22.114 12.1059 22.114 13.5162 21.2933 14.5125C20.5535 15.4108 19.3533 16.7151 17.8423 17.8022C16.3393 18.8836 14.4434 19.811 12.3334 19.811C10.2235 19.811 8.32757 18.8836 6.82453 17.8022C5.31359 16.7151 4.11338 15.4108 3.37351 14.5125C2.5529 13.5162 2.55291 12.1059 3.37351 11.1096C4.11338 10.2113 5.31359 8.90693 6.82453 7.81988Z" fill="black"/>
<path fill-rule="evenodd" clip-rule="evenodd" d="M12.3334 10.811C11.2288 10.811 10.3334 11.7065 10.3334 12.811C10.3334 13.9156 11.2288 14.811 12.3334 14.811C13.4379 14.811 14.3334 13.9156 14.3334 12.811C14.3334 11.7065 13.4379 10.811 12.3334 10.811ZM8.33337 12.811C8.33337 10.6019 10.1242 8.81104 12.3334 8.81104C14.5425 8.81104 16.3334 10.6019 16.3334 12.811C16.3334 15.0202 14.5425 16.811 12.3334 16.811C10.1242 16.811 8.33337 15.0202 8.33337 12.811Z" fill="black"/>
</svg>
