<svg width="24" height="24" viewBox="0 0 24 24" fill="none" xmlns="http://www.w3.org/2000/svg">
<path d="M6.88247 4.24297L6.88249 4.24305L6.89469 4.2389C7.42049 4.05969 7.99882 4.00024 8.55284 4.00024C9.70996 4.00024 10.6061 4.48606 11.4191 5.06688L12.0003 5.48216L12.5816 5.06694C13.3993 4.48288 14.2887 4.00024 15.4648 4.00024C16.0314 4.00024 16.5971 4.07951 17.135 4.25847L17.135 4.2585L17.1425 4.26093C20.4557 5.33417 21.6594 8.95137 20.6577 12.1244C20.0907 13.743 19.1637 15.2201 17.9496 16.4271C17.9496 16.4271 17.9496 16.4271 17.9496 16.4271C16.1546 18.1553 14.1403 19.7148 11.9999 21.0001C9.85543 19.6799 7.87729 18.1602 6.06076 16.4182C4.85477 15.2112 3.92688 13.743 3.35089 12.1244C2.33242 8.95243 3.53505 5.33593 6.88247 4.24297Z" stroke="currentColor" stroke-width="2"/>
</svg>
