<svg width="24" height="24" viewBox="0 0 24 24" fill="none" xmlns="http://www.w3.org/2000/svg">
<path d="M2.76234 4.75C2.209 4.75 1.75 5.19164 1.75 5.74916C1.75 6.30668 2.209 6.74832 2.76234 6.74832L21.2377 6.74832C21.791 6.74832 22.25 6.30668 22.25 5.74916C22.25 5.19164 21.791 4.75 21.2377 4.75H2.76234ZM2.76234 11.0008C2.209 11.0008 1.75 11.4425 1.75 12C1.75 12.5575 2.209 12.9992 2.76234 12.9992L21.2377 12.9992C21.791 12.9992 22.25 12.5575 22.25 12C22.25 11.4425 21.791 11.0008 21.2377 11.0008L2.76234 11.0008ZM2.76234 17.2517C2.209 17.2517 1.75 17.6933 1.75 18.2508C1.75 18.8084 2.209 19.25 2.76234 19.25L21.2377 19.25C21.791 19.25 22.25 18.8084 22.25 18.2508C22.25 17.6933 21.791 17.2517 21.2377 17.2517L2.76234 17.2517Z" fill="#201F29" stroke="black" stroke-width="0.5" stroke-linecap="round"/>
</svg>
