<svg width="170" height="170" viewBox="0 0 170 170" fill="none" xmlns="http://www.w3.org/2000/svg">
<path d="M94.8 5.98999H74.66C64.45 16.2 50.61 21.93 36.18 21.93L21.94 36.17C21.94 50.6 16.21 64.45 6 74.65V94.79C16.21 105 21.94 118.84 21.94 133.27L36.18 147.51C50.61 147.51 64.46 153.24 74.66 163.45H94.8C105.01 153.24 118.85 147.51 133.28 147.51L147.52 133.27C147.52 118.84 153.25 104.99 163.46 94.79V74.65C153.25 64.44 147.52 50.6 147.52 36.17L133.28 21.93C118.85 21.93 105 16.2 94.8 5.98999Z" fill="#2c07ff"/>
<path d="M94.8 169.46H74.66C73.07 169.46 71.54 168.83 70.42 167.7C61.27 158.55 49.12 153.52 36.18 153.52C34.59 153.52 33.06 152.89 31.94 151.76L17.7 137.52C16.58 136.4 15.94 134.87 15.94 133.28C15.94 120.35 10.9 108.19 1.76001 99.04C0.64001 97.92 0 96.39 0 94.8V74.66C0 73.07 0.63001 71.54 1.76001 70.42C10.91 61.27 15.94 49.11 15.94 36.18C15.94 34.59 16.57 33.06 17.7 31.94L31.94 17.7C33.07 16.57 34.59 15.94 36.18 15.94C49.11 15.94 61.27 10.9 70.42 1.75999C71.54 0.629995 73.07 0 74.66 0H94.8C96.39 0 97.92 0.629995 99.04 1.75999C108.19 10.9 120.35 15.94 133.28 15.94C134.87 15.94 136.4 16.57 137.52 17.7L151.76 31.94C152.88 33.06 153.52 34.59 153.52 36.18C153.52 49.11 158.56 61.27 167.7 70.42C168.82 71.54 169.46 73.07 169.46 74.66V94.8C169.46 96.39 168.83 97.92 167.7 99.04C158.55 108.19 153.52 120.35 153.52 133.28C153.52 134.87 152.89 136.4 151.76 137.52L137.52 151.76C136.4 152.89 134.87 153.52 133.28 153.52C120.35 153.52 108.19 158.56 99.04 167.7C97.91 168.83 96.39 169.46 94.8 169.46ZM77.07 157.46H92.39C102.95 147.73 116.4 142.16 130.75 141.57L141.58 130.74C142.17 116.4 147.74 102.94 157.47 92.38V77.06C147.74 66.5 142.17 53.05 141.58 38.7L130.75 27.87C116.4 27.28 102.95 21.71 92.39 11.98H77.07C66.51 21.71 53.06 27.28 38.71 27.87L27.88 38.7C27.29 53.04 21.72 66.5 11.99 77.06V92.38C21.72 102.94 27.29 116.39 27.88 130.74L38.71 141.57C53.06 142.16 66.51 147.73 77.07 157.46Z" fill="white"/>
<path d="M77.45 113.36L51.79 87.7L62.4 77.09L77.45 92.1501L107.06 62.55L117.66 73.1501L77.45 113.36Z" fill="white"/>
</svg>
